<svg xmlns="http://www.w3.org/2000/svg" width="512" height="512" viewBox="0 0 70.07 70.07"><g fill="#4a90e2"><path d="M65.094 32.195h-7.916a3.74 3.74 0 0 0-3.738 3.745v.406a3.742 3.742 0 0 0 3.741 3.748h7.913a3.75 3.75 0 0 0 3.747-3.748l-.004-.411a3.738 3.738 0 0 0-3.743-3.74z"/><path d="M65.098 22.852h-1.649V4.734A4.748 4.748 0 0 0 58.714 0H27.475a4.748 4.748 0 0 0-4.734 4.734v12.999a2918.3 2918.3 0 0 0-12.814 7.292c-3.528 1.452-8.697 6.137-8.697 17.2 0 .988.065 1.9.156 2.781.029.258.061.506.096.755.091.647.205 1.266.341 1.854.049.21.087.429.14.63.183.68.395 1.318.633 1.925.12.301.25.575.381.857.14.297.281.589.432.862.175.329.35.646.542.947.046.07.096.134.143.205 4.556 6.887 12.961 6.918 12.961 6.918h5.686v5.379c0 2.601 2.13 4.731 4.734 4.731h31.238c2.605 0 4.735-2.131 4.735-4.731v-6.561h.722v-.004h.921a3.74 3.74 0 0 0 3.746-3.746l.004-.408a3.744 3.744 0 0 0-3.747-3.738H57.177a3.737 3.737 0 0 0-3.738 3.741v.415a3.745 3.745 0 0 0 3.741 3.743h2.974v2.534h-34.12V27.323c1.714-1.087 3.301-2.133 4.206-2.834 4.585-3.546 8.937-6.37 9.526-8.931.767-3.323-1.784-6.123-6.209-3.824-1.394.724-4.255 2.311-7.523 4.146V7.502l34.12.005V22.85h-2.043v.004h-.929a3.746 3.746 0 0 0-3.748 3.747v.406a3.741 3.741 0 0 0 3.743 3.742H65.096a3.74 3.74 0 0 0 3.741-3.742v-.417a3.737 3.737 0 0 0-3.739-3.738zM43.09 62.976a2.366 2.366 0 0 1 2.37 2.368 2.364 2.364 0 0 1-2.37 2.367 2.363 2.363 0 0 1-2.363-2.367 2.37 2.37 0 0 1 2.363-2.368zm5.003-58.418h-9.996a.574.574 0 0 1-.574-.57c0-.32.26-.575.574-.575h9.996a.57.57 0 0 1 .57.575c0 .314-.256.57-.57.57z"/><path d="M65.094 41.538h-7.916a3.748 3.748 0 0 0-3.743 3.746v.41a3.741 3.741 0 0 0 3.743 3.743H65.092a3.745 3.745 0 0 0 3.746-3.743v-.41a3.743 3.743 0 0 0-3.744-3.746z"/></g></svg>